<svg viewBox="0 0 100 100" xmlns="http://www.w3.org/2000/svg">
  <defs>
    <!-- Multi-platform gradient -->
    <linearGradient id="multiPlatformGradient" x1="0%" y1="0%" x2="100%" y2="100%">
      <stop offset="0%" style="stop-color:#3b82f6;stop-opacity:1" />
      <stop offset="50%" style="stop-color:#8b5cf6;stop-opacity:1" />
      <stop offset="100%" style="stop-color:#ec4899;stop-opacity:1" />
    </linearGradient>
    
    <!-- Subtle shadow for depth -->
    <filter id="shadow">
      <feDropShadow dx="0" dy="2" stdDeviation="3" flood-opacity="0.3"/>
    </filter>
  </defs>
  
  <!-- Background Circle -->
  <circle cx="50" cy="50" r="48" fill="url(#multiPlatformGradient)" />
  
  <!-- Main Design: Airplane with 3 paths/platforms -->
  <g transform="translate(50, 50)" filter="url(#shadow)">
    <!-- Three converging paths representing three platforms -->
    <g opacity="0.8">
      <!-- Path 1 - Trip.com -->
      <path d="M -35 -5 Q -20 -10 -8 0 Q -20 10 -35 5" 
            stroke="#60a5fa" stroke-width="3" fill="none" stroke-linecap="round" />
      <!-- Path 2 - Klook -->
      <path d="M -35 0 Q -20 0 0 0" 
            stroke="#a78bfa" stroke-width="3" fill="none" stroke-linecap="round" />
      <!-- Path 3 - SG Attractions -->
      <path d="M -35 5 Q -20 10 -8 0 Q -20 -10 -35 -5" 
            stroke="#f472b6" stroke-width="3" fill="none" stroke-linecap="round" />
    </g>
    
    <!-- Central Airplane (representing GoTravelNha aggregating platforms) -->
    <g transform="translate(0, 0)">
      <!-- Body -->
      <rect x="5" y="-2" width="25" height="4" rx="2" fill="white" />
      <!-- Wings -->
      <path d="M 15 -5 L 20 -12 L 25 -5 Z" fill="white" />
      <path d="M 15 5 L 20 12 L 25 5 Z" fill="white" />
      <!-- Tail -->
      <path d="M 0 -5 L 5 -8 L 5 -5 L 8 -5 Z" fill="white" />
      <path d="M 0 5 L 5 8 L 5 5 L 8 5 Z" fill="white" />
      <!-- Nose -->
      <path d="M 30 -3 L 38 0 L 30 3 Z" fill="white" />
    </g>
  </g>
</svg>
